<svg width="121" height="57" viewBox="0 0 121 57" fill="none" xmlns="http://www.w3.org/2000/svg">
<path fill-rule="evenodd" clip-rule="evenodd" d="M84.1103 20.9066C81.1115 4.76209 74.4066 0 70.8399 0C65.274 0 63.846 3.98862 52.0002 4.12299C40.1544 3.98862 38.7263 0 33.1604 0C29.5938 0 22.8855 4.76209 19.8866 20.9066C18.1764 30.1227 16.3199 43.8813 20.7434 45.5332C26.2481 47.5881 28.1147 42.4491 34.16 38.1065C40.2972 33.705 43.2416 32.6693 52.0002 32.6693C60.7587 32.6693 63.7032 33.705 69.8403 38.1065C75.8856 42.4458 77.7522 47.5881 83.2569 45.5332C87.6804 43.8813 85.824 30.126 84.1103 20.9066ZM38.3999 23.0009C36.5964 23.0009 34.8668 22.3103 33.5915 21.081C32.3162 19.8518 31.5998 18.1845 31.5998 16.4461C31.5998 14.7076 32.3162 13.0404 33.5915 11.8111C34.8668 10.5818 36.5964 9.89125 38.3999 9.89125C40.2034 9.89125 41.9331 10.5818 43.2083 11.8111C44.4836 13.0404 45.2 14.7076 45.2 16.4461C45.2 18.1845 44.4836 19.8518 43.2083 21.081C41.9331 22.3103 40.2034 23.0009 38.3999 23.0009ZM62.2003 23.0009C61.2986 23.0009 60.4338 22.6556 59.7961 22.041C59.1585 21.4263 58.8003 20.5927 58.8003 19.7235C58.8003 18.8543 59.1585 18.0207 59.7961 17.406C60.4338 16.7914 61.2986 16.4461 62.2003 16.4461C63.1021 16.4461 63.9669 16.7914 64.6046 17.406C65.2422 18.0207 65.6004 18.8543 65.6004 19.7235C65.6004 20.5927 65.2422 21.4263 64.6046 22.041C63.9669 22.6556 63.1021 23.0009 62.2003 23.0009ZM69.0005 16.4461C68.0987 16.4461 67.2339 16.1008 66.5963 15.4861C65.9586 14.8715 65.6004 14.0379 65.6004 13.1687C65.6004 12.2994 65.9586 11.4658 66.5963 10.8512C67.2339 10.2365 68.0987 9.89125 69.0005 9.89125C69.9022 9.89125 70.767 10.2365 71.4047 10.8512C72.0423 11.4658 72.4005 12.2994 72.4005 13.1687C72.4005 14.0379 72.0423 14.8715 71.4047 15.4861C70.767 16.1008 69.9022 16.4461 69.0005 16.4461Z" fill="#FFF5F2"/>
<path d="M5.56 46C5.10667 46 4.73333 45.8533 4.44 45.56C4.14667 45.2667 4 44.8933 4 44.44V16.32C4 15.8667 4.14667 15.4933 4.44 15.2C4.73333 14.9067 5.10667 14.76 5.56 14.76H24.32C24.7467 14.76 25.1067 14.9067 25.4 15.2C25.72 15.4667 25.88 15.8267 25.88 16.28C25.88 16.68 25.72 17.0267 25.4 17.32C25.1067 17.6133 24.7467 17.76 24.32 17.76H7.12V28.8H19.64C20.0933 28.8 20.4667 28.9467 20.76 29.24C21.0533 29.5333 21.2 29.8933 21.2 30.32C21.2 30.7467 21.0533 31.1067 20.76 31.4C20.4667 31.6933 20.0933 31.84 19.64 31.84H7.12V43H24.32C24.7467 43 25.1067 43.1467 25.4 43.44C25.72 43.7333 25.88 44.08 25.88 44.48C25.88 44.9333 25.72 45.3067 25.4 45.6C25.1067 45.8667 24.7467 46 24.32 46H5.56Z" fill="#FFF5F2"/>
<path d="M83.56 44C83.1333 44 82.76 43.8533 82.44 43.56C82.1467 43.24 82 42.8667 82 42.44V14.32C82 13.8933 82.1467 13.5333 82.44 13.24C82.76 12.92 83.1333 12.76 83.56 12.76C83.9867 12.76 84.3467 12.92 84.64 13.24C84.96 13.5333 85.12 13.8933 85.12 14.32V27.92L99.72 13.32C99.9333 13.1067 100.133 12.96 100.32 12.88C100.507 12.8 100.72 12.76 100.96 12.76C101.44 12.76 101.8 12.9067 102.04 13.2C102.28 13.4933 102.387 13.8533 102.36 14.28C102.36 14.68 102.2 15.0667 101.88 15.44L90.92 26.4L102 41.52C102.24 41.8667 102.333 42.24 102.28 42.64C102.253 43.0133 102.107 43.3333 101.84 43.6C101.573 43.8667 101.253 44 100.88 44C100.293 44 99.8533 43.7733 99.56 43.32L88.68 28.6L85.12 32.2V42.44C85.12 42.8667 84.96 43.24 84.64 43.56C84.3467 43.8533 83.9867 44 83.56 44Z" fill="#FFF5F2"/>
</svg>
